<?xml version="1.0" standalone="no"?>
<!DOCTYPE svg PUBLIC "-//W3C//DTD SVG 20010904//EN"
 "http://www.w3.org/TR/2001/REC-SVG-20010904/DTD/svg10.dtd">
<svg version="1.0" xmlns="http://www.w3.org/2000/svg"
 width="1862.000000pt" height="1862.000000pt" viewBox="0 0 1862.000000 1862.000000"
 preserveAspectRatio="xMidYMid meet">
<metadata>
Created by potrace 1.14, written by Peter Selinger 2001-2017
</metadata>
<g transform="translate(0.000000,1862.000000) scale(0.100000,-0.100000)"
fill="#000000" stroke="none">
<path d="M1389 18526 c-2 -2 -26 -6 -54 -10 -431 -53 -833 -309 -1069 -680
-111 -175 -196 -404 -223 -601 -11 -79 -10 -15824 0 -15895 58 -386 272 -751
572 -976 33 -25 67 -51 75 -57 55 -45 241 -137 355 -175 97 -33 101 -34 250
-62 96 -17 383 -18 8000 -16 4345 1 7914 5 7930 9 17 4 64 14 105 23 41 8 116
29 165 46 506 174 871 592 988 1129 l22 104 0 7905 c0 4348 -4 7932 -8 7965
-4 33 -13 78 -18 100 -11 40 -16 60 -25 102 -19 92 -114 298 -192 418 -160
245 -425 462 -690 564 -100 38 -115 44 -127 46 -5 2 -35 10 -65 19 -30 9 -57
16 -60 16 -6 0 -50 8 -95 18 -32 6 -15829 15 -15836 8z"/>
</g>
</svg>
